<svg xmlns="http://www.w3.org/2000/svg" width="111" height="111" viewBox="-15 -15 111 111">
  <path transform="rotate(-90, 40.5, 40.5)" fill="#FF8A80" stroke="#000" stroke-width="1.5" stroke-linejoin="round" d="m39.9 44.8.3-1.1h-1.4l-9.2-.2-9.2-.2-4.5-.6c-2.5-.3-4.7-.6-4.9-.6h-.4l-3.1 4.8-3.2 4.8-.5.1c-.3.1-1.1.2-1.7.2l-1.2.1-.1-.5-.1-.5 1.5-5.1c.8-2.8 1.5-5.1 1.5-5.2s-.7-.2-1.6-.4l-1.6-.3-.3-.3-.2-.3.1-.1c.1 0 .9-.3 1.9-.6.9-.3 1.7-.5 1.8-.5 0 0-.4-1.4-.9-3.1s-1.3-4.1-1.6-5.4l-.7-2.3.2-.2.2-.2h1.1l1.1.1.6.3.6.3 3 4.4c1.6 2.4 3.1 4.5 3.2 4.7l.2.2 1.7-.3c.9-.1 3.1-.4 4.8-.6l3-.4 4.4-.1c2.4-.1 6.3-.2 8.5-.2 2.3-.1 4.5-.2 5.1-.3l1-.1-.1-1.8c-.1-1-.2-2-.3-2.3l-.2-.5h-.7-.7l-.1-.4-.2-.4.3-.2c.2-.1.6-.2.9-.2h.5v-.2c0-.1-.2-.8-.5-1.5s-.6-1.4-.6-1.5-.2-.3-.2-.5v-.2l-.4-.1-.4-.1.1.4.1.4h-.5-.5v-.4-.4l.6-.2c.3-.1.6-.3.6-.4s-.2-.7-.4-1.4l-.3-1.2h-.5c-.3 0-.7-.1-.9-.1l-.4-.1v-.3-.5l.6-.2c.3-.1.6-.3.6-.3 0-.1-.3-.8-.6-1.7s-.7-1.7-.8-1.8l-.3-.3.1.3.1.3-.5.1-.5.1v-.4-.4l.5-.1.5-.1v-.3c0-.2-.1-.6-.3-.9l-.3-.6-.6-.1-.6-.1-.1-.4-.1-.4.5-.2.5-.2-.5-1.3c-.3-.7-1.1-2.8-1.9-4.6s-1.8-4.1-2.2-5.1l-.8-1.8.1-.3v-.2h.6.6l1.5.8c.8.4 1.6 1 1.8 1.2s.8 1.1 1.3 1.9 2.3 3.7 4 6.4 4.5 7.1 6.1 9.8c1.7 2.7 3.2 5.2 3.4 5.5l.4.5.4-.4.4-.4 2.5-.1 2.6-.1.3.2.3.2v1.6 1.9l-.3.2-.3.2-1.9.1-1.9.1 1.6 2.5 1.6 2.5.8.4.8.4 8.9.1 8.9.1 2.3.5 2.3.5 1.5.7c.8.4 1.8.9 2.1 1.2l.5.5v.4.4l-.5.5c-.3.3-1 .8-1.7 1.1l-1.2.6-2.2.6-2 .4-2.7.2-2.7.3h-6.9-6.9l-.7.3-.6.3-1.5 2.4-1.5 2.5 1.8.1 1.8.1.3.2.3.2v1.6 1.6l-.5.3-.5.3-2.4-.1-2.4-.1-.3-.3-.3-.2-1.3 2c-.7 1.1-2.1 3.4-3.2 5.1s-2.3 3.7-2.8 4.5-1.2 2-1.6 2.6-2 3.2-3.6 5.8l-2.9 4.6-.7.4-.7.4-.3-.1-.3-.1.1.3.1.3-.8.5-.8.5h-.6-.6l-.1-.3-.2-.2 1.5-3.6c.8-2 2.1-5 2.7-6.6l1.2-3-.4-.3-.4-.3.1-.4.1-.4h.5.5l.3-.6c.2-.4.4-.9.5-1.2v-.1h-.2-.2v-.5-.4l.5-.1.5-.1.6-1.5.6-1.5-.5-.1-.5-.1v-.5-.5l.4.2c.2.1.6.2.8.3l.1-.5c.1-.2.4-.9.7-1.7l.5-1.4-.7-.2-.7-.2v-.4-.3l.9-.2.9-.1.4-1.2c.2-.7.5-1.3.5-1.5l.1-.3-.7-.2-.7-.1v-.5-.4l.9-.2z"/>
</svg>
