<svg xmlns="http://www.w3.org/2000/svg" width="80" height="120" viewBox="0 0 80 120">
  <!-- Top-down airport ground vehicle, pointing north (up) — dark grey -->
  <!-- Cab (front/top section) -->
  <rect x="16" y="8" width="48" height="38" rx="8" ry="8" fill="#4B5563" stroke="#1F2937" stroke-width="2.5"/>
  <!-- Windshield -->
  <rect x="22" y="12" width="36" height="18" rx="4" ry="4" fill="#1F2937" opacity="0.6"/>
  <!-- Body (rear/bottom section) -->
  <rect x="12" y="44" width="56" height="52" rx="4" ry="4" fill="#4B5563" stroke="#1F2937" stroke-width="2.5"/>
  <!-- Center circle detail on body -->
  <circle cx="40" cy="68" r="5" fill="none" stroke="#1F2937" stroke-width="1.5" opacity="0.4"/>
  <!-- Left mirror -->
  <rect x="6" y="56" width="8" height="16" rx="3" ry="3" fill="#4B5563" stroke="#1F2937" stroke-width="2"/>
  <!-- Right mirror -->
  <rect x="66" y="56" width="8" height="16" rx="3" ry="3" fill="#4B5563" stroke="#1F2937" stroke-width="2"/>
  <!-- Rear bumper -->
  <rect x="18" y="94" width="44" height="8" rx="3" ry="3" fill="#4B5563" stroke="#1F2937" stroke-width="2"/>
  <!-- Left rear wheel -->
  <rect x="10" y="88" width="8" height="18" rx="3" ry="3" fill="#1F2937" stroke="#111827" stroke-width="1.5"/>
  <!-- Right rear wheel -->
  <rect x="62" y="88" width="8" height="18" rx="3" ry="3" fill="#1F2937" stroke="#111827" stroke-width="1.5"/>
  <!-- Left front wheel -->
  <rect x="12" y="20" width="6" height="14" rx="2" ry="2" fill="#1F2937" stroke="#111827" stroke-width="1.5"/>
  <!-- Right front wheel -->
  <rect x="62" y="20" width="6" height="14" rx="2" ry="2" fill="#1F2937" stroke="#111827" stroke-width="1.5"/>
  <!-- Rear lights -->
  <rect x="22" y="96" width="8" height="4" rx="1" ry="1" fill="#E53E3E" opacity="0.7"/>
  <rect x="50" y="96" width="8" height="4" rx="1" ry="1" fill="#E53E3E" opacity="0.7"/>
</svg>
